<mxfile host="Electron" modified="2024-02-25T23:17:45.731Z" agent="Mozilla/5.0 (Windows NT 10.0; Win64; x64) AppleWebKit/537.36 (KHTML, like Gecko) draw.io/23.1.5 Chrome/120.0.6099.109 Electron/28.1.0 Safari/537.36" etag="zz9jBtGZQgJ26Jsx83R0" version="23.1.5" type="device">
  <diagram name="Page-1" id="hwJGP-7LeXRfqxVs9OOH">
    <mxGraphModel dx="743" dy="631" grid="1" gridSize="10" guides="1" tooltips="1" connect="1" arrows="1" fold="1" page="1" pageScale="1" pageWidth="827" pageHeight="1169" math="0" shadow="0">
      <root>
        <mxCell id="0" />
        <mxCell id="1" parent="0" />
        <mxCell id="IZ1IGUefkEzbKXLhbxw_-9" value="" style="group" vertex="1" connectable="0" parent="1">
          <mxGeometry x="257" y="76" width="170.51999999999998" height="295" as="geometry" />
        </mxCell>
        <mxCell id="IZ1IGUefkEzbKXLhbxw_-8" value="" style="group" vertex="1" connectable="0" parent="IZ1IGUefkEzbKXLhbxw_-9">
          <mxGeometry x="17" y="134" width="137" height="148" as="geometry" />
        </mxCell>
        <mxCell id="IZ1IGUefkEzbKXLhbxw_-3" value="" style="ellipse;whiteSpace=wrap;html=1;rounded=0;align=center;verticalAlign=middle;fontFamily=IBM Plex sans;fontSize=12;labelBackgroundColor=none;fillColor=#b1ddf0;strokeColor=none;" vertex="1" parent="IZ1IGUefkEzbKXLhbxw_-8">
          <mxGeometry y="68" width="137" height="80" as="geometry" />
        </mxCell>
        <mxCell id="IZ1IGUefkEzbKXLhbxw_-4" value="" style="rounded=0;whiteSpace=wrap;html=1;align=center;verticalAlign=middle;fontFamily=IBM Plex sans;fontSize=12;labelBackgroundColor=none;fillColor=#b1ddf0;strokeColor=none;" vertex="1" parent="IZ1IGUefkEzbKXLhbxw_-8">
          <mxGeometry width="137" height="108" as="geometry" />
        </mxCell>
        <mxCell id="IZ1IGUefkEzbKXLhbxw_-2" value="" style="shape=mxgraph.pid.vessels.half_pipe_mixing_vessel;html=1;pointerEvents=1;align=center;verticalLabelPosition=bottom;verticalAlign=top;dashed=0;rounded=0;fontFamily=IBM Plex sans;fontSize=12;fontColor=#388ECC;labelBackgroundColor=none;fillColor=none;gradientColor=none;strokeWidth=2;" vertex="1" parent="IZ1IGUefkEzbKXLhbxw_-9">
          <mxGeometry width="170.52" height="295" as="geometry" />
        </mxCell>
        <mxCell id="IZ1IGUefkEzbKXLhbxw_-10" value="&lt;font style=&quot;font-size: 14px;&quot; color=&quot;#000000&quot;&gt;N&lt;sub&gt;A&lt;/sub&gt;&lt;/font&gt;" style="text;html=1;align=center;verticalAlign=middle;whiteSpace=wrap;rounded=0;fontFamily=IBM Plex sans;fontSize=12;fontColor=#388ECC;labelBackgroundColor=none;" vertex="1" parent="IZ1IGUefkEzbKXLhbxw_-9">
          <mxGeometry x="94" y="134" width="60" height="30" as="geometry" />
        </mxCell>
      </root>
    </mxGraphModel>
  </diagram>
</mxfile>
